<svg width="180" height="744" viewBox="0 0 180 744" fill="none" xmlns="http://www.w3.org/2000/svg">
<g clip-path="url(#clip0_103_2)">
<path d="M63.1531 507.401L32.2573 161.793L84.5954 18.5638L137.797 161.793L115.626 507.401" fill="white"/>
<path d="M57.1385 508.465L26 160.235L84.555 0L144 160.045L121.668 508.18L109.584 506.622L131.593 163.522L84.6359 37.1088L38.5147 163.351L69.1813 506.337L57.1385 508.465Z" fill="white"/>
<path d="M27.249 507.401H156.421C164.711 507.401 171.443 514.127 171.443 522.411V543.369H13.2346V521.404C13.2346 513.671 19.5097 507.401 27.249 507.401Z" fill="white"/>
<path d="M180 551.92H4.67773V521.404C4.67773 508.978 14.7939 498.85 27.249 498.85H156.421C169.427 498.85 180 509.415 180 522.411V551.92ZM21.7916 534.819H162.886V522.411C162.886 518.839 159.977 515.951 156.421 515.951H27.249C24.2446 515.951 21.7916 518.402 21.7916 521.404V534.819Z" fill="white"/>
<path d="M138.87 589.104H45.1997C34.6081 589.104 25.9751 580.478 25.9751 569.895V534.819H159.045L159.482 568.203C159.558 573.752 157.448 578.996 153.531 582.948C149.632 586.9 144.403 589.085 138.851 589.085L138.87 589.104ZM43.089 551.92V569.895C43.089 571.054 44.0398 572.004 45.1997 572.004H138.87C140.144 572.004 140.999 571.339 141.38 570.959C141.76 570.56 142.407 569.724 142.388 568.45L142.159 551.939H43.089V551.92Z" fill="white"/>
<path d="M118.181 580.554H66.5349V695.301H118.181V580.554Z" fill="white"/>
<path d="M126.738 703.851H57.978V572.004H126.738V703.851ZM75.0919 686.75H109.624V589.104H75.0919V686.75Z" fill="white"/>
<path d="M66.5349 712.401V695.301H118.181V714.473C118.181 726.063 108.787 735.45 97.1878 735.45H89.6006C76.8603 735.45 66.5349 725.132 66.5349 712.401Z" fill="white"/>
<path d="M97.1878 744H89.6007C72.1635 744 57.978 729.825 57.978 712.401V686.75H126.738V714.473C126.738 730.756 113.484 744 97.1878 744ZM75.0919 703.851V712.401C75.0919 720.401 81.5952 726.899 89.6007 726.899H97.1878C104.052 726.899 109.624 721.332 109.624 714.473V703.851H75.0919Z" fill="white"/>
</g>
<defs>
<clipPath id="clip0_103_2">
<rect width="180" height="744" fill="white"/>
</clipPath>
</defs>
</svg>
